<svg xmlns="http://www.w3.org/2000/svg" viewBox="0 0 512 512">
  <path d="M371.5 135.5C341.4 105.4 301.6 90 256 90c-45.6 0-85.4 15.4-115.5 45.5C110.4 165.6 95 205.4 95 251c0 45.6 15.4 85.4 45.5 115.5 30.1 30.1 69.9 45.5 115.5 45.5 45.6 0 85.4-15.4 115.5-45.5 30.1-30.1 45.5-69.9 45.5-115.5 0-45.6-15.4-85.4-45.5-115.5zM256 60c53.2 0 99.9 19.9 136.5 56.5C429.1 153.1 449 199.8 449 253c0 53.2-19.9 99.9-56.5 136.5C355.9 426.1 309.2 446 256 446c-53.2 0-99.9-19.9-136.5-56.5C82.9 352.9 63 306.2 63 253c0-53.2 19.9-99.9 56.5-136.5C156.1 79.9 202.8 60 256 60z"/>
  <path d="M391.9 338.6c-13.5-14.9-32.1-23.4-52.2-23.4-2.8 0-5.6.2-8.4.5-10.8 1.3-25.5 5.7-45.8 13.2-16.2 6-28.7 9.8-39.6 12-10.9-2.2-23.4-6-39.6-12-20.3-7.5-35-11.9-45.8-13.2-2.8-.3-5.6-.5-8.4-.5-20.1 0-38.7 8.5-52.2 23.4-13.9 15.3-21.1 35.8-20.3 57.7.8 21.9 9.2 41.8 23.7 56.3 14.5 14.5 34.4 22.9 56.3 23.7.8 0 1.6.1 2.4.1 20.6 0 40.6-8.5 54.9-23.3 8.7-9 14.7-19.9 17.8-31.8 1-3.9 1.7-8 2.1-12.1.4-4.2 1.8-5.8 2.5-6.4.7-.6 2.4-1.8 6.6-1.8s5.9 1.2 6.6 1.8c.7.6 2.1 2.2 2.5 6.4.4 4.2 1.1 8.2 2.1 12.1 3.1 11.9 9.1 22.8 17.8 31.8 14.3 14.8 34.3 23.3 54.9 23.3.8 0 1.6 0 2.4-.1 21.9-.8 41.8-9.2 56.3-23.7 14.5-14.5 22.9-34.4 23.7-56.3.8-21.9-6.4-42.4-20.3-57.7zm-18.7 96.7c-9.7 9.7-22.8 15.5-36.9 16.1-14.1.5-27.6-4.1-38-13.1-10.4-9-16.8-21.4-18.1-35.1-.2-1.9-.3-3.8-.3-5.7 0-13.9 5.2-27.2 14.7-37.5 9.5-10.3 22.4-16.1 36.3-16.1 1.9 0 3.8.1 5.7.3 13.7 1.3 26.1 7.7 35.1 18.1 9 10.4 13.6 23.9 13.1 38-.6 14.1-6.4 27.2-16.1 36.9l4.5-1.9z"/>
</svg>